<?xml version="1.0" encoding="UTF-8"?>
<svg version="1.1" xmlns="http://www.w3.org/2000/svg" width="430" height="182">
<path d="M0 0 C4.62 0 9.24 0 14 0 C14.44279297 0.94617187 14.88558594 1.89234375 15.34179688 2.8671875 C17.02460311 6.46159349 18.71017647 10.05469659 20.39648438 13.64746094 C21.11856474 15.18683404 21.83994695 16.72653488 22.56054688 18.26660156 C27.54913845 28.92658076 32.68503106 39.49882314 38 50 C38.50861572 48.97753174 39.01723145 47.95506348 39.54125977 46.90161133 C41.46068035 43.04442893 43.38290669 39.18865015 45.3059082 35.33325195 C46.13184859 33.6763966 46.95706565 32.01918044 47.78149414 30.36157227 C61.77989621 2.22010379 61.77989621 2.22010379 64 0 C66.64 0 69.28 0 72 0 C80.25 16.5 88.5 33 97 50 C99.49133427 45.64016502 101.80906583 41.47452283 103.953125 36.97265625 C104.48655518 35.85737549 105.01998535 34.74209473 105.56958008 33.59301758 C106.40138794 31.84541138 106.40138794 31.84541138 107.25 30.0625 C112.06525075 19.98963744 116.9521185 9.95850943 122 0 C126.29 0 130.58 0 135 0 C134.23306414 3.06774344 133.61767155 4.94698953 132.1875 7.625 C130.68895322 10.53676706 129.4097652 13.43821987 128.25 16.5 C126.53859548 20.88865554 124.49669687 25.06373061 122.35546875 29.25390625 C118.00135419 37.86893263 114.01093958 46.63095544 110.0625 55.4375 C109.05816685 57.67430338 108.05285938 59.91064746 107.04478455 62.14576721 C106.42595368 63.5180701 105.80929091 64.89135331 105.19508362 66.26573181 C103.11233314 70.88766686 103.11233314 70.88766686 102 72 C99.03 72 96.06 72 93 72 C84.75 55.5 76.5 39 68 22 C65.3590782 24.6409218 64.02424689 27.74481103 62.40625 31.0625 C61.68632523 32.52089619 60.96626886 33.97922742 60.24609375 35.4375 C59.87532715 36.19160156 59.50456055 36.94570312 59.12255859 37.72265625 C57.33748568 41.3440482 55.52733723 44.95281107 53.71875 48.5625 C53.01549492 49.96868495 52.31236966 51.37493484 51.609375 52.78125 C48.40625 59.1875 45.203125 65.59375 42 72 C39.03 72 36.06 72 33 72 C14.51827304 33.13738299 14.51827304 33.13738299 7.3503418 17.31054688 C5.54384672 13.32800411 3.70514968 9.3846524 1.7109375 5.4921875 C0 2 0 2 0 0 Z " fill="#16A0B8" transform="translate(147,36)"/>
<path d="M0 0 C1.0771376 -0.00524185 2.15427521 -0.0104837 3.26405334 -0.0158844 C5.53239076 -0.02228166 7.80076146 -0.02099752 10.0690918 -0.01245117 C13.52127688 -0.00394047 16.97180607 -0.03273809 20.42382812 -0.06445312 C22.63671826 -0.06606546 24.8496113 -0.065487 27.0625 -0.0625 C28.08464096 -0.07373398 29.10678192 -0.08496796 30.15989685 -0.09654236 C37.75860571 -0.02339668 43.98482943 1.45406712 49.9375 6.36328125 C54.60192379 12.04270191 56.59765625 15.89157589 56.59765625 23.43359375 C52.63765625 23.43359375 48.67765625 23.43359375 44.59765625 23.43359375 C44.35015625 22.31984375 44.10265625 21.20609375 43.84765625 20.05859375 C42.99241641 16.41323663 42.99241641 16.41323663 40.59765625 15.05859375 C39.93765625 14.85234375 39.27765625 14.64609375 38.59765625 14.43359375 C37.60765625 13.93859375 37.60765625 13.93859375 36.59765625 13.43359375 C35.17427876 13.32921931 33.74623629 13.28495558 32.3190918 13.27246094 C31.43444748 13.26285339 30.54980316 13.25324585 29.63835144 13.24334717 C28.68003922 13.23909729 27.72172699 13.23484741 26.734375 13.23046875 C25.75024124 13.22476868 24.76610748 13.2190686 23.75215149 13.2131958 C21.66656573 13.20373825 19.58096498 13.19720883 17.49536133 13.19335938 C14.30848999 13.18366473 11.12226646 13.15265275 7.93554688 13.12109375 C5.91016008 13.11456267 3.88476867 13.10931261 1.859375 13.10546875 C0.90713547 13.09312195 -0.04510406 13.08077515 -1.02619934 13.0680542 C-7.75714684 13.04704011 -7.75714684 13.04704011 -13.40234375 16.43359375 C-16.11739581 20.65783208 -16.78552255 23.95780596 -16.80078125 28.93359375 C-16.80464844 30.15046875 -16.80851562 31.36734375 -16.8125 32.62109375 C-16.80089844 33.87921875 -16.78929688 35.13734375 -16.77734375 36.43359375 C-16.78894531 37.69171875 -16.80054687 38.94984375 -16.8125 40.24609375 C-16.80863281 41.46296875 -16.80476563 42.67984375 -16.80078125 43.93359375 C-16.79739746 45.03703125 -16.79401367 46.14046875 -16.79052734 47.27734375 C-16.21720535 51.93892033 -14.86009211 55.12982684 -11.33374023 58.28369141 C-7.05010068 59.96403973 -3.06307483 59.8622226 1.5 59.83203125 C2.4553212 59.83490143 3.4106424 59.83777161 4.39491272 59.84072876 C6.41131179 59.84276633 8.42773076 59.837258 10.4440918 59.82470703 C13.52112325 59.8086669 16.59683771 59.82455726 19.67382812 59.84375 C21.63672164 59.84176717 23.59961433 59.83792267 25.5625 59.83203125 C26.93618996 59.84114029 26.93618996 59.84114029 28.33763123 59.85043335 C33.49977192 59.79395472 37.1353212 59.32742048 41.59765625 56.43359375 C42.90614988 54.68658137 42.90614988 54.68658137 43.47265625 52.74609375 C44.02953125 51.10640625 44.02953125 51.10640625 44.59765625 49.43359375 C48.55765625 49.43359375 52.51765625 49.43359375 56.59765625 49.43359375 C56.71564684 57.69293517 54.74613526 61.33052318 49.1171875 67.3046875 C42.56131439 72.84414618 36.73703658 72.90086568 28.48046875 72.90234375 C27.3093454 72.90995728 26.13822205 72.9175708 24.93161011 72.92541504 C22.45882291 72.93620146 19.98599021 72.9390751 17.51318359 72.93457031 C13.74238582 72.93359883 9.97362882 72.97522451 6.203125 73.01953125 C3.79557714 73.02473923 1.38802224 73.02742643 -1.01953125 73.02734375 C-2.14060272 73.04373901 -3.26167419 73.06013428 -4.41671753 73.07702637 C-13.19975617 73.0000063 -18.0534125 70.782525 -24.21484375 64.62109375 C-29.86125066 56.39347226 -29.90302997 48.48020613 -29.84838867 38.85302734 C-29.8398876 36.57036795 -29.86868362 34.29022518 -29.90039062 32.0078125 C-29.94693271 22.39018541 -29.33837524 13.4959786 -22.65234375 5.99609375 C-15.90840031 0.22819855 -8.47388387 -0.0242893 0 0 Z " fill="#109DB7" transform="translate(82.40234375,35.56640625)"/>
<path d="M0 0 C3.96 0 7.92 0 12 0 C12 9.9 12 19.8 12 30 C31.47 30 50.94 30 71 30 C71 20.1 71 10.2 71 0 C74.96 0 78.92 0 83 0 C83 23.76 83 47.52 83 72 C79.04 72 75.08 72 71 72 C71 62.1 71 52.2 71 42 C51.53 42 32.06 42 12 42 C12 51.9 12 61.8 12 72 C8.04 72 4.08 72 0 72 C0 48.24 0 24.48 0 0 Z " fill="#0F9DB6" transform="translate(293,36)"/>
<path d="M0 0 C13.50011379 -0.92607488 13.50011379 -0.92607488 19.4140625 3.515625 C24.83587318 8.59022613 25.8287785 13.62258208 26.10571289 20.70263672 C26.30515239 29.19862024 26.30515239 29.19862024 26.34179688 33.1953125 C26.51527802 39.63428713 27.08607194 43.79794372 31 49 C34.08380786 50.96183059 34.08380786 50.96183059 37 52 C37.375 55.25 37.375 55.25 37 59 C34.1875 61.1875 34.1875 61.1875 31 63 C27.59488073 66.87479089 26.88405658 70.15464377 26.75390625 75.2265625 C26.72103516 76.25910156 26.68816406 77.29164062 26.65429688 78.35546875 C26.59375949 80.51163007 26.53639609 82.66788316 26.48242188 84.82421875 C25.90869473 102.29583422 25.90869473 102.29583422 21 107 C20.34 107 19.68 107 19 107 C19 107.66 19 108.32 19 109 C13.14583762 111.99212744 7.58199519 112.95444986 1 113 C0 112 0 112 -0.09765625 109.71484375 C-0.08605469 108.79832031 -0.07445312 107.88179688 -0.0625 106.9375 C-0.05347656 106.01839844 -0.04445313 105.09929687 -0.03515625 104.15234375 C-0.02355469 103.44207031 -0.01195312 102.73179688 0 102 C0.886875 101.71125 1.77375 101.4225 2.6875 101.125 C8.24211394 99.70819318 8.24211394 99.70819318 12 96 C12.12834531 94.51238582 12.20211416 93.01983638 12.24609375 91.52734375 C12.27896484 90.62693359 12.31183594 89.72652344 12.34570312 88.79882812 C12.40602077 86.91871443 12.46340221 85.03850381 12.51757812 83.15820312 C12.88478941 73.38206869 13.77704026 65.22295974 21 58 C21.50059916 55.58517587 21.50059916 55.58517587 21 53 C19.71182656 51.62298702 18.37195574 50.29355827 17 49 C12.31134889 41.01192774 12.73289076 32.43409966 12.48242188 23.43554688 C12.44826172 22.52482422 12.41410156 21.61410156 12.37890625 20.67578125 C12.3538501 19.84989502 12.32879395 19.02400879 12.30297852 18.1730957 C12.11986612 15.70910059 12.11986612 15.70910059 10 13 C7.84715094 12.24171621 7.84715094 12.24171621 5.4375 11.875 C1.08023483 11.08023483 1.08023483 11.08023483 0 10 C-0.07205511 8.31391034 -0.08386068 6.62499341 -0.0625 4.9375 C-0.05347656 4.01839844 -0.04445313 3.09929688 -0.03515625 2.15234375 C-0.02355469 1.44207031 -0.01195312 0.73179688 0 0 Z " fill="#1EA3BB" transform="translate(388,14)"/>
<path d="M0 0 C1.89885096 1.89885096 1.12367506 4.57247903 1.1328125 7.08984375 C1 9 1 9 0 11 C-2.27399754 11.60076256 -4.55130576 11.9563154 -6.87109375 12.33984375 C-9.36790025 12.86888679 -9.36790025 12.86888679 -11 16 C-11.33342452 18.18851631 -11.33342452 18.18851631 -11.34375 20.60546875 C-11.38822266 21.95801758 -11.38822266 21.95801758 -11.43359375 23.33789062 C-11.45550781 24.27826172 -11.47742188 25.21863281 -11.5 26.1875 C-11.71268835 35.1266664 -12.30511339 43.1125905 -17 51 C-17.99 51.66 -18.98 52.32 -20 53 C-20.66977494 55.32680295 -20.66977494 55.32680295 -20 58 C-18.38405168 60.04119788 -16.7143618 62.04072937 -15 64 C-11.21571871 71.56856257 -11.71247114 80.29951258 -11.48242188 88.56445312 C-11.43118164 89.93053711 -11.43118164 89.93053711 -11.37890625 91.32421875 C-11.3538501 92.15010498 -11.32879395 92.97599121 -11.30297852 93.8269043 C-11.11986612 96.29089941 -11.11986612 96.29089941 -9 99 C-6.84494418 99.721322 -6.84494418 99.721322 -4.4375 100.0625 C-1.99609375 100.47265625 -1.99609375 100.47265625 0 101 C1.12256131 103.24512262 1.13413762 104.51456649 1.125 107 C1.12886719 108.051875 1.12886719 108.051875 1.1328125 109.125 C1 111 1 111 0 113 C-6.63093294 112.65226572 -12.053928 112.03910346 -18 109 C-18 108.34 -18 107.68 -18 107 C-19.485 106.505 -19.485 106.505 -21 106 C-26.68530275 98.56537332 -25.27872765 87.60725378 -25.4296875 78.71679688 C-25.62485791 72.20705034 -26.16560507 67.45056774 -30.4375 62.25 C-32.18840804 60.84927357 -33.95792017 59.9154151 -36 59 C-36 56.69 -36 54.38 -36 52 C-34.906875 51.46375 -33.81375 50.9275 -32.6875 50.375 C-28.74424675 48.44057388 -27.49006294 46.09990373 -26 42 C-25.55249175 38.06548667 -25.48832647 34.14470394 -25.4375 30.1875 C-25.12283655 11.34265559 -25.12283655 11.34265559 -20.75 5.625 C-14.39972597 -0.43662521 -8.48358281 -0.68607513 0 0 Z " fill="#1DA2BA" transform="translate(43,14)"/>
<path d="M0 0 C2.33294775 -0.04241723 4.66702567 -0.04092937 7 0 C8 1 8 1 8.09765625 3.06640625 C8.08605469 3.89011719 8.07445312 4.71382812 8.0625 5.5625 C8.05347656 6.38878906 8.04445313 7.21507812 8.03515625 8.06640625 C8.02355469 8.70449219 8.01195312 9.34257812 8 10 C8.66 9.67 9.32 9.34 10 9 C14.06026544 8.73375309 17.01385039 8.67842948 20.875 9.9375 C24.14375493 13.11011508 24.70354338 16.53832794 25 21 C24.39715031 25.15296456 23.99269882 27.17275098 20.75 29.875 C14.70151976 32.34937828 11.1921621 31.80135625 5 30 C3.32928085 30.31238822 1.66290326 30.64837288 0 31 C-3.02638458 31.06439116 -6.03634335 30.9992583 -9.0625 30.9375 C-11.98018509 30.91282198 -11.98018509 30.91282198 -14.70703125 31.546875 C-17.75457822 32.14911597 -19.2992831 31.45984698 -22 30 C-24.42130331 26.36804504 -24.21022785 24.61650652 -24.125 20.3125 C-24.09792969 18.54326172 -24.09792969 18.54326172 -24.0703125 16.73828125 C-24.03550781 15.38283203 -24.03550781 15.38283203 -24 14 C-25.32 13.67 -26.64 13.34 -28 13 C-27.67 11.68 -27.34 10.36 -27 9 C-24.36 9 -21.72 9 -19 9 C-18.93941406 10.05960938 -18.87882812 11.11921875 -18.81640625 12.2109375 C-18.73199873 13.59897221 -18.64735083 14.98699232 -18.5625 16.375 C-18.52318359 17.07367188 -18.48386719 17.77234375 -18.44335938 18.4921875 C-18.25719866 22.37360492 -18.25719866 22.37360492 -17 26 C-15.02 25.67 -13.04 25.34 -11 25 C-10.67 21.37 -10.34 17.74 -10 14 C-11.32 13.67 -12.64 13.34 -14 13 C-14 11.68 -14 10.36 -14 9 C-11.03 9 -8.06 9 -5 9 C-4.505 17.415 -4.505 17.415 -4 26 C-2.68 26 -1.36 26 0 26 C1.58403524 24.41596476 1.21974935 22.7228362 1.31640625 20.52734375 C1.35830078 19.62822266 1.40019531 18.72910156 1.44335938 17.80273438 C1.48267578 16.85720703 1.52199219 15.91167969 1.5625 14.9375 C1.60568359 13.98810547 1.64886719 13.03871094 1.69335938 12.06054688 C1.79979276 9.70718647 1.90181008 7.35371646 2 5 C1.01 5 0.02 5 -1 5 C-0.67 3.35 -0.34 1.7 0 0 Z M8 16 C7.52719746 18.20902912 7.52719746 18.20902912 7.625 20.5625 C7.61726563 21.34753906 7.60953125 22.13257813 7.6015625 22.94140625 C7.73304688 23.62074219 7.86453125 24.30007812 8 25 C11.22143276 27.14762184 12.2595467 27.561068 16 27 C18.50907308 24.75048621 18.95656309 23.34749528 19.375 20 C18.95656309 16.65250472 18.50907308 15.24951379 16 13 C12.10093441 12.31766352 10.40440034 12.90862814 8 16 Z " fill="#3DB0C4" transform="translate(352,129)"/>
<path d="M0 0 C3.63 0 7.26 0 11 0 C11.33 1.65 11.66 3.3 12 5 C11.01 5 10.02 5 9 5 C9.27714844 5.73605469 9.55429688 6.47210938 9.83984375 7.23046875 C10.20207031 8.20628906 10.56429687 9.18210938 10.9375 10.1875 C11.29714844 11.15042969 11.65679687 12.11335937 12.02734375 13.10546875 C12.91156562 15.7368278 13.52568586 18.26894908 14 21 C14.25394531 20.14277344 14.50789062 19.28554687 14.76953125 18.40234375 C16.56381284 12.44156558 18.37328057 6.64744678 21 1 C23.475 1.495 23.475 1.495 26 2 C27.98 7.94 29.96 13.88 32 20 C33.32 15.38 34.64 10.76 36 6 C35.34 5.67 34.68 5.34 34 5 C34.33 3.35 34.66 1.7 35 0 C38.63 0 42.26 0 46 0 C46 1.65 46 3.3 46 5 C45.01 5.33 44.02 5.66 43 6 C41.84263199 8.37476685 41.84263199 8.37476685 41 11.3125 C40.66355469 12.38757813 40.32710937 13.46265625 39.98046875 14.5703125 C38.7369917 18.92000513 37.63630551 23.29278465 36.61328125 27.69921875 C36 30 36 30 35 31 C33.00041636 31.04080783 30.99954746 31.04254356 29 31 C28.36803616 29.50292061 27.74485607 28.00213297 27.125 26.5 C26.77695313 25.6646875 26.42890625 24.829375 26.0703125 23.96875 C24.7668644 20.35334651 23.88685283 16.73916329 23 13 C22.65066406 14.21558594 22.30132812 15.43117187 21.94140625 16.68359375 C21.4819414 18.26827863 21.0222967 19.85291137 20.5625 21.4375 C20.33240234 22.23994141 20.10230469 23.04238281 19.86523438 23.86914062 C18.11328125 29.88671875 18.11328125 29.88671875 17 31 C15.00041636 31.04080783 12.99954746 31.04254356 11 31 C9.38568576 26.87764973 7.89557975 22.8138521 6.75390625 18.53515625 C6.55603516 17.79845703 6.35816406 17.06175781 6.15429688 16.30273438 C5.75325889 14.78461368 5.36294937 13.26362557 4.98242188 11.74023438 C4.35041732 9.28014426 4.35041732 9.28014426 3 6 C0.97317972 5.22684479 0.97317972 5.22684479 -1 5 C-0.67 3.35 -0.34 1.7 0 0 Z " fill="#35ADC2" transform="translate(163,129)"/>
<path d="M0 0 C3.3 0 6.6 0 10 0 C10.33 1.65 10.66 3.3 11 5 C10.01 5 9.02 5 8 5 C8 7.64 8 10.28 8 13 C12.95 13 17.9 13 23 13 C23 10.36 23 7.72 23 5 C22.01 5 21.02 5 20 5 C20.33 3.35 20.66 1.7 21 0 C24.3 0 27.6 0 31 0 C31.495 2.475 31.495 2.475 32 5 C31.01 5.33 30.02 5.66 29 6 C28.67 12.6 28.34 19.2 28 26 C29.32 26.33 30.64 26.66 32 27 C32 28.32 32 29.64 32 31 C28.04 31 24.08 31 20 31 C20 29.35 20 27.7 20 26 C20.99 26 21.98 26 23 26 C23 23.03 23 20.06 23 17 C18.05 17 13.1 17 8 17 C8 19.97 8 22.94 8 26 C8.99 26.33 9.98 26.66 11 27 C11 28.32 11 29.64 11 31 C7.04 31 3.08 31 -1 31 C-0.67 29.35 -0.34 27.7 0 26 C0.66 26 1.32 26 2 26 C2 19.07 2 12.14 2 5 C1.01 5 0.02 5 -1 5 C-0.67 3.35 -0.34 1.7 0 0 Z " fill="#2DA9BF" transform="translate(292,129)"/>
<path d="M0 0 C2.64 0 5.28 0 8 0 C8.33 8.58 8.66 17.16 9 26 C9.66 26.33 10.32 26.66 11 27 C11 28.32 11 29.64 11 31 C10.34773438 30.98839844 9.69546875 30.97679687 9.0234375 30.96484375 C3.35180383 30.90149349 3.35180383 30.90149349 -2.25 31.6875 C-6.01819155 32.11570359 -7.85144774 31.02906701 -11 29 C-13.20122294 27.09227345 -13.8922355 25.79775661 -14.28125 22.91796875 C-14.47149251 18.1381256 -14.13214774 14.82818057 -11 11 C-7.842224 8.894816 -7.04602866 8.74710656 -3.4375 8.8125 C-2.65246094 8.81894531 -1.86742188 8.82539063 -1.05859375 8.83203125 C1 9 1 9 3 10 C2.72382467 8.05925139 2.72382467 8.05925139 2 6 C1.01 5.34 0.02 4.68 -1 4 C-0.67 2.68 -0.34 1.36 0 0 Z M-6.75 14.125 C-8.50026391 16.75039586 -8.8082071 18.86738265 -9 22 C-8.6824493 24.38558027 -8.6824493 24.38558027 -7 26 C-3.43793339 26.81870185 -3.43793339 26.81870185 0 27 C2.67716504 23.20734952 3.60643498 20.64933486 3 16 C1.93654948 14.01970318 1.93654948 14.01970318 0 13 C-2.83004474 12.57549329 -4.32392716 12.56538175 -6.75 14.125 Z " fill="#2AA8BF" transform="translate(129,129)"/>
<path d="M0 0 C1.32 0 2.64 0 4 0 C5.36952673 2.73905345 5.12621361 4.97087332 5 8 C4.67 8.66 4.34 9.32 4 10 C2.68 10 1.36 10 0 10 C-0.928125 8.7625 -0.928125 8.7625 -1.875 7.5 C-3.79542137 4.72238301 -3.79542137 4.72238301 -7 4.375 C-10.12442492 4.765377 -10.12442492 4.765377 -12.3125 7.0625 C-14.32034774 10.55764236 -14.92804886 12.97073617 -15 17 C-13.63571607 19.92346557 -12.27249091 21.72750909 -10 24 C-5.48235621 25.20470501 -3.21963691 24.77668923 1 23 C3.3125 23.375 3.3125 23.375 5 24 C4.625 26.375 4.625 26.375 3 29 C-1.86777475 31.10347437 -6.70826102 31.44132966 -11.8125 30.0625 C-15.57380581 28.51529619 -18.05167307 26.71211339 -20.1875 23.2265625 C-21.89033312 18.56014483 -21.7355096 13.85841201 -21 9 C-19.0171377 4.96345889 -16.83420139 2.3499944 -13 0 C-8.4538533 -1.51538223 -4.56799761 -1.2181327 0 0 Z " fill="#37ADC2" transform="translate(86,130)"/>
<path d="M0 0 C3 1.5 3 1.5 5 4 C5.6941666 6.73491202 5.85771032 9.15420636 6 12 C0.72 12 -4.56 12 -10 12 C-9.34 13.32 -8.68 14.64 -8 16 C-3.71249148 17.05165303 -0.25621291 17.16078534 4 16 C4.33 17.32 4.66 18.64 5 20 C-0.39671317 23.05031614 -3.72633744 23.14332682 -9.765625 21.93359375 C-12.56120184 20.76551182 -13.49157077 19.60589322 -15 17 C-16.15322497 13.26410355 -16.56484552 9.62808414 -15.26953125 5.89453125 C-11.75961777 -0.62772176 -6.80473598 -0.8237312 0 0 Z M-7 4 C-8.485 5.98 -8.485 5.98 -10 8 C-6.37 8 -2.74 8 1 8 C0.34 6.68 -0.32 5.36 -1 4 C-3.87413125 3.66602213 -3.87413125 3.66602213 -7 4 Z " fill="#37ADC2" transform="translate(274,138)"/>
<path d="M0 0 C0.95648438 -0.03738281 1.91296875 -0.07476562 2.8984375 -0.11328125 C5.625 0.3125 5.625 0.3125 7.9296875 1.91015625 C10.13835268 5.03994677 10.22291225 7.26030617 10.375 11.0625 C10.43171875 12.23296875 10.4884375 13.4034375 10.546875 14.609375 C10.57265625 15.50140625 10.5984375 16.3934375 10.625 17.3125 C11.615 17.6425 12.605 17.9725 13.625 18.3125 C13.295 19.6325 12.965 20.9525 12.625 22.3125 C11.97273438 22.30089844 11.32046875 22.28929687 10.6484375 22.27734375 C6.7548926 22.23714491 3.1504077 22.21336647 -0.6875 22.9375 C-3.86227016 23.38049119 -5.54338729 22.72830636 -8.375 21.3125 C-9.1875 18.0625 -9.1875 18.0625 -9.375 14.3125 C-7.20242835 11.56057591 -5.4765688 10.52950354 -2.03515625 9.8515625 C0.1881602 9.59164873 2.38914814 9.40992274 4.625 9.3125 C4.295 7.6625 3.965 6.0125 3.625 4.3125 C-0.83 4.8075 -0.83 4.8075 -5.375 5.3125 C-5.375 5.9725 -5.375 6.6325 -5.375 7.3125 C-6.365 6.9825 -7.355 6.6525 -8.375 6.3125 C-8 3.875 -8 3.875 -7.375 1.3125 C-4.81683084 0.03341542 -2.85652006 0.07275319 0 0 Z M-3.375 15.3125 C-3.375 16.3025 -3.375 17.2925 -3.375 18.3125 C0.09 17.8175 0.09 17.8175 3.625 17.3125 C3.955 15.9925 4.285 14.6725 4.625 13.3125 C1.74104263 13.3125 -0.66977815 14.37155327 -3.375 15.3125 Z " fill="#34ACC1" transform="translate(218.375,137.6875)"/>
<path d="M0 0 C3.54913466 2.51397039 4.74540555 4.05436347 5.875 8.25 C5.91625 9.1575 5.9575 10.065 6 11 C4.00383446 12.99616554 0.18298037 12.40983427 -2.5625 12.5625 C-3.27341797 12.60568359 -3.98433594 12.64886719 -4.71679688 12.69335938 C-6.47761912 12.79971777 -8.2387832 12.90038846 -10 13 C-8.89574262 15.12718182 -8.89574262 15.12718182 -7 17 C-4.24516698 17.26685308 -4.24516698 17.26685308 -1.3125 16.75 C-0.31863281 16.62109375 0.67523438 16.4921875 1.69921875 16.359375 C2.45847656 16.24078125 3.21773437 16.1221875 4 16 C4 17.65 4 19.3 4 21 C-5.49191245 23.65467974 -5.49191245 23.65467974 -9.9375 21.9375 C-13.31238038 19.8023716 -14.59441323 18.72067086 -16 15 C-16.55030372 10.04726649 -16.52164446 7.9893257 -14.1875 3.5625 C-10.46502534 -0.79811317 -5.42313401 -0.83725578 0 0 Z M-10 6 C-10 6.66 -10 7.32 -10 8 C-6.7 8 -3.4 8 0 8 C-0.66 6.68 -1.32 5.36 -2 4 C-5.71599191 3.79913557 -6.77208445 3.8480563 -10 6 Z " fill="#35ACC2" transform="translate(157,138)"/>
<path d="M0 0 C2.2926749 1.94529992 3.20672374 2.87147985 4.0625 5.75 C4.39406904 9.92776989 4.47430849 12.65991872 3 16.5625 C0.4130695 19.48322798 -2.13281865 21.05028849 -5.9375 21.75 C-10.25784589 21.52034706 -13.78392226 20.86752844 -16.9375 17.8125 C-18.96022263 13.64063458 -19.32815048 10.35967564 -18.9375 5.75 C-14.84156596 -1.87691165 -7.88371665 -3.35477304 0 0 Z M-11.75 3.75 C-13.64770228 6.94613015 -13.48753751 10.133315 -12.9375 13.75 C-11.91328739 15.85938785 -11.91328739 15.85938785 -9.9375 16.75 C-7.07300877 17.17967368 -5.6060327 17.20364719 -3.1875 15.5625 C-1.55370392 13.19349569 -1.07483132 11.6339577 -0.9375 8.75 C-2.0790919 6.4668162 -3.12762683 4.55987317 -4.9375 2.75 C-7.63719684 2.46582139 -9.34885091 2.42522809 -11.75 3.75 Z " fill="#39AEC3" transform="translate(109.9375,139.25)"/>
<path d="M0 0 C2.64 0 5.28 0 8 0 C8.06058594 1.05960938 8.12117188 2.11921875 8.18359375 3.2109375 C8.26800127 4.59897221 8.35264917 5.98699232 8.4375 7.375 C8.47681641 8.07367188 8.51613281 8.77234375 8.55664062 9.4921875 C8.74280134 13.37360492 8.74280134 13.37360492 10 17 C11.98 16.67 13.96 16.34 16 16 C16.33 12.37 16.66 8.74 17 5 C15.68 4.67 14.36 4.34 13 4 C13 2.68 13 1.36 13 0 C15.97 0 18.94 0 22 0 C22.495 8.415 22.495 8.415 23 17 C23.66 17.33 24.32 17.66 25 18 C25 18.99 25 19.98 25 21 C23.02 21 21.04 21 19 21 C19 20.34 19 19.68 19 19 C17.989375 19.70125 16.97875 20.4025 15.9375 21.125 C12.7224386 22.97431378 12.11549229 23.01703985 8.1875 22.4375 C5 21 5 21 3 18 C2.8046875 14.86328125 2.8046875 14.86328125 2.875 11.3125 C2.90207031 9.54326172 2.90207031 9.54326172 2.9296875 7.73828125 C2.96449219 6.38283203 2.96449219 6.38283203 3 5 C1.68 4.67 0.36 4.34 -1 4 C-0.67 2.68 -0.34 1.36 0 0 Z " fill="#2DA9BF" transform="translate(325,138)"/>
<path d="M0 0 C3.63 0 7.26 0 11 0 C11 1.32 11 2.64 11 4 C10.34 4 9.68 4 9 4 C9.495 4.928125 9.99 5.85625 10.5 6.8125 C12 10 12 10 12 13 C12.66 13 13.32 13 14 13 C15.94002992 6.55201154 15.94002992 6.55201154 15 0 C18.3 0 21.6 0 25 0 C25 1.32 25 2.64 25 4 C24 5 23 6 22 7 C21.07361195 9.15790688 20.22592695 11.35045572 19.4375 13.5625 C17.20833333 19.79166667 17.20833333 19.79166667 15 22 C12.6015625 22.125 12.6015625 22.125 10 21 C8.38895367 18.49565412 7.40803355 15.7834515 6.375 13 C5.33340996 10.26934503 4.23005344 7.65831455 3 5 C2.01 4.67 1.02 4.34 0 4 C0 2.68 0 1.36 0 0 Z " fill="#37ADC2" transform="translate(232,138)"/>
<path d="M0 0 C-1.44424635 3.23861303 -3.25772247 5.61969163 -5.625 8.25 C-6.25664063 8.95640625 -6.88828125 9.6628125 -7.5390625 10.390625 C-8.02117188 10.92171875 -8.50328125 11.4528125 -9 12 C-9.33 11.34 -9.66 10.68 -10 10 C-8.12282726 6.14136714 -4.70350972 0 0 0 Z " fill="#66C0D1" transform="translate(65,39)"/>
<path d="M0 0 C0.66 0.33 1.32 0.66 2 1 C1.0479279 2.00596297 0.08812654 3.00461563 -0.875 4 C-1.40867187 4.556875 -1.94234375 5.11375 -2.4921875 5.6875 C-4 7 -4 7 -6 7 C-4.60667426 3.63279613 -3.0210714 2.0140476 0 0 Z " fill="#61BFCF" transform="translate(27,16)"/>
</svg>
